<?xml version="1.0" encoding="UTF-8" standalone="no"?>
<svg
   xmlns="http://www.w3.org/2000/svg"
   width="48"
   height="48"
   viewBox="0 0 12.7 12.7"
   version="1.1"
   id="svg8">
  <defs />
  <rect
     rx="1.2577258"
     ry="1.2577258"
     y="0.26457518"
     x="0.26458332"
     height="12.170834"
     width="12.170834"
     id="rect4504"
     style="opacity:1;fill:#4d4d4d;fill-opacity:1;stroke-width:0.31042394" />
    <path
       id="path820"
       style="fill:#ffffff;fill-opacity:1;stroke-width:0.27039254"
       d="m 7.1025575,3.247343 q -0.5650781,0 -1.0245342,0.2165253 Q 5.6185672,3.6751125 5.2911388,4.0764764 4.9689914,4.4778403 4.7894339,5.0534807 4.6151574,5.629121 4.6151574,6.3526323 q 0,0.7446357 0.153152,1.3255572 0.1584332,0.5756403 0.4700183,0.9717232 0.3115852,0.3960828 0.7763223,0.6020458 0.4647372,0.2059631 1.0879075,0.2059631 0.4700183,0 0.8925066,-0.089779 0.4224884,-0.09506 0.8344145,-0.2165252 v 0.8555384 q -0.2059631,0.07922 -0.4119261,0.14259 -0.2059631,0.05809 -0.4330506,0.09506 -0.2218064,0.03697 -0.4805805,0.05281 -0.253493,0.02112 -0.5650781,0.02112 -0.8661011,0 -1.4998336,-0.28518 Q 4.8052772,9.7483823 4.3880699,9.225553 3.9761438,8.7027237 3.7754618,7.9686502 3.5747799,7.2345767 3.5747799,6.3420701 q 0,-0.8766633 0.2270875,-1.6054557 Q 4.034236,4.007822 4.4778487,3.4849927 4.9267426,2.9621634 5.5868806,2.6717027 6.2470186,2.3812419 7.1025575,2.3812419 q 0.5703593,0 1.0879075,0.1161843 0.5175482,0.1161843 0.9347554,0.3379907 L 8.7132943,3.6592691 Q 8.3805847,3.4902738 7.989783,3.3688084 7.5989813,3.247343 7.1025575,3.247343 Z" />
</svg>
