<?xml version="1.0" encoding="UTF-8" standalone="no"?>
<svg
   xmlns="http://www.w3.org/2000/svg"
   width="48"
   height="48"
   viewBox="0 0 12.7 12.7"
   version="1.1"
   id="svg8">
  <defs />
  <rect
     rx="1.2577258"
     ry="1.2577258"
     y="0.26457518"
     x="0.26458332"
     height="12.170834"
     width="12.170834"
     id="rect4504"
     style="opacity:1;fill:#4d4d4d;fill-opacity:1;stroke-width:0.31042394" />
    <path
       id="path815"
       style="fill:#ffffff;fill-opacity:1;stroke-width:0.26878306"
       d="M 5.6150463,7.9931389 V 7.7989011 q 0,-0.2992311 0.036748,-0.5407159 Q 5.6937914,7.0167004 5.7935351,6.8067136 5.8985285,6.5967269 6.0717675,6.3972394 6.2450066,6.1925023 6.5074901,5.9720162 6.7594742,5.7567798 6.937963,5.5835407 7.1164517,5.4050519 7.2266948,5.2265632 7.3421875,5.0428248 7.3946842,4.8380876 q 0.057746,-0.2099867 0.057746,-0.4882192 0,-0.2519841 -0.078745,-0.4567212 Q 7.2949405,3.6831604 7.1427001,3.5361697 6.9957093,3.3839293 6.7699736,3.3051842 6.5494875,3.2211895 6.255506,3.2211895 q -0.4357226,0 -0.8294478,0.1364914 Q 5.032333,3.4941723 4.6648562,3.6726611 L 4.334127,2.911459 Q 4.7593502,2.6909729 5.2528191,2.5387325 5.746288,2.3812424 6.255506,2.3812424 q 0.4882192,0 0.8766947,0.1364914 0.3937252,0.1312417 0.666708,0.3832259 0.2729829,0.2519841 0.4199736,0.619461 0.1469907,0.3622271 0.1469907,0.8189484 0,0.3517278 -0.073495,0.6299603 Q 8.224132,5.2423122 8.0823909,5.4785473 7.9406498,5.7147824 7.730663,5.9352685 7.5206763,6.1557546 7.2371941,6.4024891 6.9642113,6.6387242 6.7909722,6.817213 6.6177332,6.9904521 6.5179894,7.1584415 6.4182457,7.3211812 6.381498,7.4944203 6.3447504,7.6676594 6.3447504,7.8986449 v 0.094494 z M 5.3630622,9.5837887 q 0,-0.1994874 0.052497,-0.3359788 Q 5.4680556,9.1060688 5.5573,9.0220741 5.6465443,8.9328297 5.7672867,8.896082 q 0.1207424,-0.041997 0.2624835,-0.041997 0.1364914,0 0.2572338,0.041997 0.1259921,0.036748 0.2152364,0.1259921 0.089244,0.083995 0.1417411,0.2257358 0.052497,0.1364914 0.052497,0.3359788 0,0.1942378 -0.052497,0.3359788 -0.052497,0.1364915 -0.1417411,0.2257355 -0.089244,0.08925 -0.2152364,0.131242 -0.1207424,0.042 -0.2572338,0.042 -0.1417411,0 -0.2624835,-0.042 Q 5.6465443,10.234748 5.5573,10.145503 5.4680556,10.056259 5.4155589,9.9197675 5.3630622,9.7780265 5.3630622,9.5837887 Z" />
</svg>
