<?xml version="1.0" encoding="UTF-8" standalone="no"?>
<svg
   xmlns="http://www.w3.org/2000/svg"
   width="48"
   height="48"
   viewBox="0 0 12.7 12.7"
   version="1.1"
   id="svg8">
  <defs />
  <rect
     rx="1.2577258"
     ry="1.2577258"
     y="0.26457518"
     x="0.26458332"
     height="12.170834"
     width="12.170834"
     id="rect4504"
     style="opacity:1;fill:#2c89a0;fill-opacity:1;stroke-width:0.31042394" />
    <path
       id="path826"
       style="fill:#ffffff;fill-opacity:1;stroke-width:0.27039254"
       d="m 3.9180517,6.9124303 q 0,-0.5545159 0.052811,-1.1037508 Q 4.0289549,5.2594447 4.1662636,4.7577398 4.3088534,4.2507538 4.5517842,3.8177032 4.794715,3.3846527 5.1696734,3.0677864 5.5446318,2.7456391 6.0674611,2.5660815 6.5902904,2.3812429 7.2926773,2.3812429 q 0.100341,0 0.2218064,0.00528 0.1214654,0.00528 0.2429308,0.021124 0.1267465,0.010562 0.2376497,0.031687 0.1161843,0.015843 0.205963,0.042249 V 3.300155 Q 8.0161886,3.2367818 7.78382,3.2050951 7.5514514,3.1734085 7.3243639,3.1734085 q -0.4752994,0 -0.8396955,0.1161843 Q 6.1255533,3.400496 5.8614981,3.6064591 5.5974428,3.8124221 5.4178853,4.0976017 5.2436089,4.3827814 5.1327057,4.7313343 5.0218025,5.074606 4.9689914,5.4654077 4.9161804,5.8562095 4.9003371,6.2786978 h 0.063373 Q 5.0693324,6.088578 5.2172033,5.9248638 5.3703554,5.7558685 5.5710373,5.6396842 5.7717193,5.5182188 6.0199312,5.4495644 q 0.253493,-0.068654 0.5650781,-0.068654 0.5017049,0 0.90835,0.1584331 0.406645,0.153152 0.6918246,0.454175 0.2851797,0.3010229 0.4383317,0.7393546 0.1584331,0.4330505 0.1584331,0.9928476 0,0.6020458 -0.1637142,1.0826263 -0.1637143,0.4805805 -0.4700183,0.8185712 -0.3063041,0.3327096 -0.7393546,0.5122671 -0.4330505,0.179558 -0.9717232,0.179558 -0.5281104,0 -0.9928476,-0.205964 Q 4.9848348,9.9068164 4.6468441,9.4843281 4.3088534,9.0618397 4.1134526,8.4228261 3.9180517,7.7838125 3.9180517,6.9124303 Z m 2.5085245,2.5983033 q 0.3168663,0 0.5756404,-0.1056221 Q 7.2662718,9.2942083 7.4563915,9.077683 7.6465113,8.8558767 7.7468523,8.5231671 7.8524744,8.1851764 7.8524744,7.7257204 q 0,-0.3696773 -0.089779,-0.6601381 Q 7.6781979,6.7698405 7.5039215,6.5638774 7.329645,6.3579144 7.0655898,6.2470112 6.8068157,6.136108 6.4582628,6.136108 q -0.3538339,0 -0.6495758,0.1267465 -0.2904607,0.1214654 -0.4964238,0.3221473 -0.205963,0.1954009 -0.3221473,0.4488939 -0.1109032,0.253493 -0.1109032,0.506986 0,0.353834 0.09506,0.707668 0.100341,0.3485529 0.2904608,0.6284514 0.1954008,0.2798985 0.4858616,0.4594561 0.2904607,0.1742764 0.6759813,0.1742764 z" />
</svg>
