<?xml version="1.0" encoding="UTF-8" standalone="no"?>
<svg
   xmlns="http://www.w3.org/2000/svg"
   width="48"
   height="48"
   viewBox="0 0 12.7 12.7"
   version="1.1"
   id="svg8">
  <defs />
  <rect
     rx="1.2577258"
     ry="1.2577258"
     y="0.26457518"
     x="0.26458332"
     height="12.170834"
     width="12.170834"
     id="rect4504"
     style="opacity:1;fill:#a02c2c;fill-opacity:1;stroke-width:0.31042394" />
  <path
     id="path826"
     style="fill:#ffffff;fill-opacity:1;stroke-width:0.24335328"
     d="m 1.4497509,5.2101314 q 0,-0.4990643 0.04753,-0.9933758 Q 1.549564,3.7224442 1.6731419,3.2709098 1.8014728,2.8146224 2.0201105,2.4248769 2.238748,2.0351315 2.5762107,1.7499518 2.9136731,1.4600193 3.3842195,1.2984176 3.8547658,1.1320628 4.486914,1.1320628 q 0.090306,0 0.1996257,0.00475 0.109319,0.00475 0.2186378,0.019012 0.1140723,0.0095 0.2138847,0.028519 0.1045656,0.014259 0.1853667,0.038023 v 0.736714 Q 5.1380741,1.9020473 4.9289424,1.8735288 4.7198106,1.8450114 4.515432,1.8450114 q -0.4277696,0 -0.755726,0.1045656 Q 3.4365024,2.0493905 3.1988528,2.2347572 2.9612031,2.420124 2.7996013,2.6767857 2.6427526,2.9334474 2.5429397,3.247145 2.4431268,3.5560894 2.3955969,3.9078111 2.3480668,4.2595326 2.3338079,4.639772 h 0.057035 Q 2.4859038,4.4686641 2.6189875,4.3213214 2.7568245,4.1692257 2.937438,4.0646597 3.1180518,3.9553408 3.3414426,3.8935522 q 0.2281436,-0.061788 0.5085702,-0.061788 0.4515345,0 0.817515,0.1425897 0.3659804,0.1378368 0.6226422,0.4087574 0.2566616,0.2709208 0.3944985,0.6654193 0.1425898,0.3897455 0.1425898,0.8935629 0,0.5418412 -0.1473428,0.9743636 Q 5.5325727,7.3489796 5.256899,7.6531714 4.9812253,7.9526093 4.59148,8.1142111 4.2017345,8.2758128 3.716929,8.2758128 q -0.4752993,0 -0.8935628,-0.1853671 Q 2.4098558,7.9050785 2.1056642,7.5248394 1.8014728,7.1446 1.625612,6.5694875 1.4497509,5.9943755 1.4497509,5.2101314 Z m 2.2576723,2.338473 q 0.2851795,0 0.5180762,-0.09506 0.2376497,-0.099813 0.4087574,-0.2946857 0.1711078,-0.1996259 0.2614147,-0.4990645 0.09506,-0.3041915 0.09506,-0.717702 0,-0.3327095 -0.080801,-0.5941242 Q 4.8338826,5.0818006 4.6770338,4.8964336 4.520185,4.711067 4.2825353,4.6112541 4.0496387,4.5114411 3.7359411,4.5114411 q -0.3184506,0 -0.5846183,0.1140723 -0.2614146,0.1093191 -0.4467815,0.2899325 -0.1853666,0.1758609 -0.2899325,0.4040046 -0.099814,0.2281438 -0.099814,0.4562877 0,0.3184505 0.085553,0.636901 0.090306,0.3136975 0.2614147,0.5656063 0.1758607,0.2519086 0.4372754,0.4135105 0.2614147,0.1568488 0.6083853,0.1568484 z" />
  <path
     id="path819"
     style="fill:#ffffff;fill-opacity:1;stroke-width:0.24881637"
     d="M 11.361453,6.681834 H 10.326338 V 8.2758128 H 9.4710346 V 6.681834 H 6.1907466 V 5.9091423 l 3.221972,-4.7770795 h 0.9136194 v 4.7430616 h 1.035115 z M 9.4710346,5.8751243 v -1.730051 q 0,-0.272143 0.00482,-0.5685843 0.00972,-0.3013011 0.01944,-0.5831632 0.00972,-0.286722 0.01944,-0.5345664 0.01458,-0.2478447 0.01944,-0.413074 h -0.04373 q -0.03402,0.097195 -0.08747,0.2186861 -0.0486,0.1166333 -0.1117801,0.2381249 -0.05832,0.1166333 -0.1214997,0.2284058 -0.06318,0.1117731 -0.116627,0.1895281 l -1.9972835,2.954694 z" />
  <path
     d="M 10.088719,9.9460127 8.2193599,8.076653 V 9.5721408 H 2.6112806 v 0.7477442 h 5.6080793 v 1.495487 z"
     style="fill:#ffffff;fill-opacity:1;stroke-width:0.25867894"
     id="path822" />
</svg>
